Coordinates
datacolumns 6
datarows 172
range 0 1.71
inDegrees=yes
Units are S.I. units (second, meters, Newtons, ...)
If the header above contains a line with 'inDegrees', this indicates whether rotational values are in degrees (yes) or radians (no).
endheader
time	foot_tx	hip_flexion_r	knee_angle_r	ankle_angle_r	lumbar
0	0.23096986	67.06208376	-79.59924657	-1.83567393	-27.45616581
0.01	0.23091232	67.06946757	-79.55023586	-1.86107666	-27.65185581
0.02	0.2308533	67.07903578	-79.50023957	-1.8859477	-27.86612461
0.03	0.23079457	67.0930898	-79.44943855	-1.91059685	-28.09839176
0.04	0.23073317	67.10907865	-79.39736226	-1.93500373	-28.35315735
0.05	0.23067708	67.13343494	-79.34261063	-1.96115538	-28.62612338
0.06	0.23061886	67.16326824	-79.28539728	-1.98852706	-28.92299534
0.07	0.23056162	67.20499087	-79.22525933	-2.01833161	-29.23950645
0.08	0.23050229	67.25975646	-79.16235205	-2.05064967	-29.5768616
0.09	0.2304434	67.33271365	-79.0966316	-2.08611445	-29.93156653
0.1	0.23038081	67.42094919	-79.02860716	-2.1238861	-30.30867579
0.11	0.23031478	67.52458733	-78.95845853	-2.1637111	-30.70971709
0.12	0.23024295	67.64139799	-78.88659591	-2.20489202	-31.13884215
0.13	0.23017079	67.77619972	-78.81276244	-2.24820101	-31.59251592
0.14	0.2300959	67.92786414	-78.73740795	-2.29306643	-32.0737515
0.15	0.23001892	68.09631033	-78.66059564	-2.33939836	-32.58442907
0.16	0.22994207	68.28427281	-78.58257	-2.3873945	-33.12341273
0.17	0.22986593	68.49620584	-78.50394888	-2.4371261	-33.68765156
0.18	0.22979062	68.73615306	-78.42537516	-2.48849666	-34.27435933
0.19	0.22971756	69.00682582	-78.34772886	-2.54098536	-34.88157494
0.2	0.22964464	69.31019083	-78.27208328	-2.5933097	-35.50729487
0.21	0.22957228	69.64525522	-78.1995439	-2.64356164	-36.15150061
0.22	0.22950298	70.00807946	-78.13055888	-2.68981217	-36.8164428
0.23	0.22943759	70.39151066	-78.06438306	-2.73051685	-37.50801256
0.24	0.22937431	70.78480811	-77.99877169	-2.76471128	-38.23716966
0.25	0.22931329	71.19214869	-77.93524151	-2.79103351	-38.99675373
0.26	0.2292649	71.61862553	-77.8712879	-2.81111262	-39.78006911
0.27	0.22921128	72.0801333	-77.81616004	-2.81955358	-40.56616684
0.28	0.22916867	72.59012925	-77.76873381	-2.81836242	-41.33722632
0.29	0.22913173	73.1593268	-77.73266187	-2.80529588	-42.07645986
0.3	0.22909379	73.79248542	-77.70855227	-2.77914572	-42.77315515
0.31	0.22906334	74.49595157	-77.69248135	-2.74228215	-43.41380236
0.32	0.22902855	75.28144655	-77.68430747	-2.69403819	-43.97864442
0.33	0.22900337	76.14962237	-77.68327738	-2.63407469	-44.45571727
0.34	0.22897021	77.10260778	-77.69308817	-2.55762183	-44.83331383
0.35	0.22894171	78.14567593	-77.71388055	-2.46390258	-45.09445496
0.36	0.22891843	79.26234202	-77.74471763	-2.35013667	-45.24902119
0.37	0.22889748	80.45555158	-77.78916784	-2.21314013	-45.28476904
0.38	0.2288838	81.71614511	-77.84506908	-2.05250276	-45.20643907
0.39	0.22887796	83.02748637	-77.91184369	-1.86628886	-45.02840286
0.4	0.2288791	84.37840843	-77.98514611	-1.65478415	-44.76104979
0.41	0.2288917	85.75055871	-78.06027539	-1.41777733	-44.42228406
0.42	0.22891888	87.12749935	-78.13149797	-1.15535852	-44.02735942
0.43	0.22896883	88.49346543	-78.19077622	-0.86912984	-43.5897284
0.44	0.22904798	89.82673734	-78.23359032	-0.55945124	-43.12966396
0.45	0.22916122	91.10910085	-78.25783531	-0.22678599	-42.66353101
0.46	0.22931446	92.32415293	-78.26362249	0.12788538	-42.20645352
0.47	0.22950208	93.46511597	-78.25524227	0.50461176	-41.76142293
0.48	0.22975055	94.50374009	-78.23335809	0.89996806	-41.36014307
0.49	0.23003057	95.4541352	-78.20878404	1.31509198	-40.97927094
0.5	0.23034264	96.30583396	-78.18728957	1.74788802	-40.6266841
0.51	0.23067563	97.04926652	-78.17562995	2.19735174	-40.30655349
0.52	0.2310151	97.66269035	-78.18175181	2.66385868	-40.03816948
0.53	0.23135755	98.126307	-78.20918093	3.14590579	-39.83738417
0.54	0.23169581	98.43283971	-78.25703023	3.63973102	-39.7040624
0.55	0.23202521	98.56999214	-78.32478279	4.14360067	-39.64780764
0.56	0.23235445	98.53965549	-78.40505176	4.65198276	-39.66176739
0.57	0.23268135	98.35548621	-78.48849532	5.1601098	-39.72716052
0.58	0.23300852	98.03023441	-78.56301593	5.66286495	-39.82908985
0.59	0.23333789	97.5825086	-78.61563624	6.15539884	-39.94724702
0.6	0.23366932	97.02775588	-78.63362803	6.63339622	-40.06662233
0.61	0.23399966	96.3822846	-78.60629439	7.09368688	-40.17331267
0.62	0.23432098	95.65807823	-78.52549417	7.5339262	-40.25895265
0.63	0.23462941	94.87069766	-78.38332469	7.95069587	-40.3122191
0.64	0.2349178	94.03410327	-78.17529093	8.34150362	-40.32328286
0.65	0.2351823	93.1576675	-77.89830879	8.70417412	-40.28731876
0.66	0.23542238	92.25117903	-77.55025142	9.03619964	-40.19845354
0.67	0.23563821	91.31784398	-77.1307939	9.33625038	-40.05754174
0.68	0.23583104	90.36237113	-76.64018805	9.60284846	-39.86324341
0.69	0.23600315	89.38267835	-76.08011412	9.83576391	-39.62175663
0.7	0.2361574	88.38112751	-75.45269923	10.03461902	-39.33367909
0.71	0.23629555	87.36049044	-74.7611491	10.19973018	-38.99933555
0.72	0.23641633	86.32261063	-74.00986288	10.33245334	-38.61997209
0.73	0.23652475	85.2751587	-73.20305704	10.43341531	-38.19008173
0.74	0.23661555	84.21526518	-72.34587004	10.50569937	-37.71580831
0.75	0.23668821	83.14262918	-71.4431028	10.55189475	-37.19985386
0.76	0.23674911	82.05643567	-70.49919365	10.57418164	-36.64522063
0.77	0.23679829	80.9502201	-69.51913191	10.57596442	-36.06164855
0.78	0.23683708	79.81742941	-68.50489402	10.55887155	-35.45864978
0.79	0.23687064	78.64908487	-67.45733116	10.52375551	-34.84847316
0.8	0.23690237	77.4383564	-66.3776821	10.47163018	-34.24095474
0.81	0.23693581	76.17777584	-65.26679852	10.403195	-33.64624688
0.82	0.2369703	74.86049603	-64.12646591	10.31995195	-33.07527516
0.83	0.23701887	73.49169699	-62.95537926	10.21955469	-32.52326293
0.84	0.23707096	72.06743906	-61.75766968	10.10477468	-31.99936747
0.85	0.237129	70.59827319	-60.53260757	9.97399199	-31.49291481
0.86	0.23718611	69.08060807	-59.28032698	9.82760029	-31.0123022
0.87	0.23724097	67.52151213	-58.00142566	9.66515578	-30.55200783
0.88	0.23727872	65.91881234	-56.69714103	9.48858533	-30.11652275
0.89	0.23729307	64.27639368	-55.36842937	9.29856392	-29.70278014
0.9	0.23727631	62.59235565	-54.01578866	9.09621804	-29.31379199
0.91	0.23723584	60.88067513	-52.63989789	8.88066604	-28.93412009
0.92	0.23717384	59.13472406	-51.23668959	8.65057007	-28.57223173
0.93	0.23708784	57.36714106	-49.81461765	8.41035647	-28.21235102
0.94	0.23700079	55.58123028	-48.36409605	8.15347556	-27.85313714
0.95	0.23691844	53.7822184	-46.88662396	7.88037577	-27.48897696
0.96	0.23685244	51.97583615	-45.38705301	7.59241431	-27.11559667
0.97	0.23680623	50.16483302	-43.86398832	7.28832983	-26.7297548
0.98	0.23678184	48.35965362	-42.32274951	6.9693124	-26.32353649
0.99	0.23676859	46.55774108	-40.76812018	6.63826373	-25.90143928
1	0.23675056	44.76593879	-39.20631268	6.29841268	-25.45869412
1.01	0.23670704	42.99665714	-37.64469171	5.95357884	-24.98508122
1.02	0.23661819	41.25134665	-36.09046628	5.60837159	-24.48311142
1.03	0.23646903	39.54036591	-34.55163516	5.26724894	-23.94545717
1.04	0.2362569	37.87276305	-33.03533303	4.93380375	-23.36678455
1.05	0.23598856	36.2514775	-31.54758016	4.61119824	-22.74839181
1.06	0.23567649	34.68795939	-30.09363137	4.30129804	-22.08234327
1.07	0.23533318	33.17817268	-28.67778411	4.00606484	-21.37854648
1.08	0.23497202	31.7369665	-27.30417466	3.72541207	-20.62875336
1.09	0.23459832	30.35560121	-25.9772703	3.46137711	-19.84915232
1.1	0.23421895	29.03949264	-24.70164178	3.21454799	-19.04230221
1.11	0.23383856	27.78916852	-23.48086538	2.98559224	-18.21512169
1.12	0.23346021	26.6067223	-22.3192728	2.77552528	-17.37364355
1.13	0.23308685	25.48953311	-21.21793917	2.58430664	-16.52593764
1.14	0.23272099	24.43889968	-20.17733042	2.41139893	-15.67597955
1.15	0.23236659	23.45211076	-19.19626483	2.25577735	-14.83030754
1.16	0.23203156	22.52152674	-18.27241108	2.11607639	-13.9986595
1.17	0.23172283	21.64412886	-17.40222496	1.98993892	-13.18580143
1.18	0.23144429	20.81791964	-16.58132439	1.87476204	-12.39360717
1.19	0.23119796	20.03703565	-15.8050247	1.76841882	-11.62666222
1.2	0.23097983	19.33465666	-15.07417506	1.66929709	-10.84771409
1.21	0.23078267	18.60765557	-14.37261437	1.57710912	-10.16392508
1.22	0.23059317	17.97071281	-13.7151836	1.49244524	-9.45103113
1.23	0.23040145	17.36185587	-13.09338387	1.41620627	-8.77400585
1.24	0.2302071	16.78209795	-12.50712811	1.34859788	-8.13043915
1.25	0.23000967	16.23534178	-11.95712261	1.29008506	-7.5154932
1.26	0.22981475	15.72136862	-11.4421842	1.2400131	-6.92808398
1.27	0.22962259	15.24122612	-10.96232525	1.19867676	-6.36547836
1.28	0.22943634	14.8220998	-10.52071521	1.16608769	-5.79654469
1.29	0.22926973	14.38607208	-10.09695711	1.13705688	-5.29589946
1.3	0.22911677	13.97582442	-9.7009724	1.11459213	-4.81739592
1.31	0.2289772	13.58893191	-9.33004567	1.09809085	-4.35912462
1.32	0.22885774	13.21495148	-8.9751691	1.08366207	-3.92609737
1.33	0.22874675	12.85579883	-8.64036271	1.07367436	-3.51796901
1.34	0.22864495	12.50984203	-8.32230354	1.06615168	-3.13557999
1.35	0.22855193	12.17620444	-8.02242481	1.06172635	-2.78096591
1.36	0.2284693	11.85465801	-7.73955926	1.05958167	-2.4540284
1.37	0.22839812	11.50691891	-7.46951375	1.06027115	-2.19553509
1.38	0.22834734	11.22261949	-7.22478259	1.06413962	-1.90806145
1.39	0.22832099	10.90292605	-6.99048543	1.07036331	-1.69491087
1.4	0.22832512	10.64848645	-6.77891835	1.07888705	-1.44546926
1.41	0.22836371	10.35560257	-6.57573801	1.08932631	-1.26895022
1.42	0.22844116	10.12866854	-6.39536493	1.10244568	-1.05179338
1.43	0.22855162	9.86737348	-6.22366288	1.11822877	-0.90053058
1.44	0.22869756	9.6682141	-6.07340769	1.13703854	-0.70976073
1.45	0.22887354	9.44113891	-5.93461667	1.16008079	-0.57660796
1.46	0.22907477	9.26714637	-5.81523581	1.18682269	-0.41102872
1.47	0.22929691	9.09829739	-5.70987866	1.2178807	-0.26384995
1.48	0.22953119	8.90309089	-5.61399686	1.25365019	-0.16815902
1.49	0.22977946	8.75828894	-5.53283023	1.29209798	-0.03620615
1.5	0.23004007	8.6165863	-5.45850537	1.33233685	0.08233608
1.51	0.23030974	8.44729722	-5.38520764	1.37353614	0.1563674
1.52	0.23059376	8.32284697	-5.31785869	1.41341495	0.26753579
1.53	0.23089066	8.17094829	-5.24728996	1.45193663	0.33879035
1.54	0.23119357	8.05508917	-5.17590981	1.48666115	0.44250806
1.55	0.23150097	7.90744266	-5.09668263	1.51835624	0.5054737
1.56	0.2318094	7.79677687	-5.01544276	1.54569387	0.60428341
1.57	0.23211381	7.64938628	-4.92431722	1.56949678	0.65841495
1.58	0.23240245	7.54211442	-4.829474	1.58856781	0.75296703
1.59	0.23267386	7.39489273	-4.72384633	1.60428064	0.79946394
1.6	0.23291897	7.29324977	-4.61756406	1.61694803	0.89163743
1.61	0.2331309	7.14354242	-4.49806026	1.62653329	0.92864501
1.62	0.23330282	7.04501515	-4.37828373	1.63377176	1.01897972
1.63	0.23341975	6.89784215	-4.24584964	1.63975034	1.05480041
1.64	0.23348954	6.80170935	-4.11157111	1.64326105	1.14651821
1.65	0.23350455	6.6579958	-3.96265868	1.64455306	1.18754524
1.66	0.23347271	6.56301967	-3.81195408	1.64356438	1.28237549
1.67	0.23338716	6.42486399	-3.64914502	1.64127973	1.32961703
1.68	0.23327193	6.33272921	-3.48613889	1.63645955	1.42509534
1.69	0.23313247	6.20190721	-3.31363958	1.62952561	1.4753421
1.7	0.23298673	6.11568132	-3.14531019	1.62087262	1.56766398
1.71	0.232835	5.99409798	-2.97426199	1.61215265	1.61332694
